<svg width="1024" height="1024" viewBox="0 0 1024 1024" fill="none" xmlns="http://www.w3.org/2000/svg">
<path d="M751.983 848.431C672.321 927.339 562.636 976.121 441.613 976.121C379.076 976.121 319.51 963.089 265.54 939.565L287.9 888.263C334.949 908.77 386.914 920.157 441.613 920.157C547.296 920.157 642.989 877.621 712.6 808.67L751.983 848.431Z" fill="#79C000"/>
<path d="M987.62 215.426C1011.21 259.595 1024.57 310.038 1024.57 363.519C1024.57 532.855 890.862 670.96 723.265 678.028C671.128 780.554 564.61 850.868 441.613 850.868C267.204 850.868 125.818 709.482 125.818 535.074C125.818 467.168 147.283 404.193 183.795 352.67L229.456 385.028C199.426 427.403 181.782 479.136 181.782 535.074C181.782 678.575 298.112 794.905 441.613 794.905C548.002 794.905 639.518 730.96 679.706 639.292L687.25 622.058C694.757 622.177 702.264 622.351 709.771 622.351C852.72 622.351 968.603 506.468 968.603 363.519C968.603 319.457 957.616 278.044 938.255 241.788L987.62 215.426Z" fill="#79C000"/>
<path d="M787.388 729.615C805.784 729.615 820.699 744.528 820.699 762.923C820.699 781.325 805.784 796.238 787.388 796.238C768.991 796.238 754.076 781.325 754.076 762.923C754.076 744.528 768.991 729.615 787.388 729.615Z" fill="#79C000"/>
<path d="M626.293 506.872C630.413 537.354 627.582 571.222 616.843 600.034C606.065 628.95 588.318 654.761 565.176 675.176C542.034 695.592 514.212 709.982 484.177 717.069C455.84 723.757 426.462 723.594 398.406 717.069L410.964 662.48C430.706 666.974 451.579 666.95 471.253 662.308C492.278 657.346 511.754 647.273 527.953 632.982C549.05 614.371 562.134 590.471 568.681 563.501H441.101V506.872H626.293Z" fill="#79C000"/>
<path d="M331.505 616.134C349.902 616.134 364.816 631.047 364.816 649.442C364.816 667.844 349.902 682.757 331.505 682.757C313.108 682.757 298.193 667.844 298.193 649.442C298.193 631.047 313.108 616.134 331.505 616.134Z" fill="#79C000"/>
<path d="M420.467 348.08C461.481 343.607 502.824 352.806 538.071 374.25L508.902 421.927C484.23 406.916 455.266 400.781 426.556 403.912C397.846 407.043 370.975 419.571 350.118 439.548C329.262 459.524 315.588 485.831 311.223 514.379C308.341 533.229 309.64 552.559 314.98 570.83L260.9 586.487C253.404 560.46 251.573 532.912 255.705 505.89C261.941 465.107 281.475 427.525 311.27 398.987C341.065 370.449 379.453 352.553 420.467 348.08Z" fill="#79C000"/>
<path d="M709.771 104.688C618.742 104.688 538.643 151.682 492.486 222.809C512.911 226.154 532.849 231.391 551.594 238.137C588.622 192.209 645.888 161.318 709.77 161.318C821.443 161.318 911.972 251.847 911.972 363.52C911.972 475.683 820.948 563.389 709.77 563.39V507.426C791.03 507.426 856.008 443.795 856.008 363.52C856.008 282.755 790.535 217.282 709.77 217.282C658.083 217.282 611.346 245.798 585.188 287.194L572.275 307.628C501.405 276.17 426.967 263.13 352.616 290.31L333.402 237.749C363.77 226.647 396.294 220.077 430.131 218.832C442.811 194.372 458.609 171.784 477 151.595C465.351 150.535 453.548 149.992 441.613 149.992C228.937 149.992 56.53 322.399 56.53 535.075H0.566406C0.566406 291.492 198.03 94.0284 441.613 94.0284C472.72 94.0284 503.103 97.2534 532.434 103.395C582.926 68.9044 643.984 48.7246 709.771 48.7246V104.688Z" fill="#79C000"/>
<path d="M734.755 337.87H799.38V387.171H734.755V451.796H685.454V387.171H620.829V337.87H685.454V273.911H734.755V337.87Z" fill="#79C000"/>
<path d="M267.06 272.579C285.457 272.579 300.371 287.492 300.371 305.887C300.371 324.289 285.457 339.202 267.06 339.202C248.663 339.202 233.748 324.289 233.748 305.887C233.748 287.492 248.663 272.579 267.06 272.579Z" fill="#79C000"/>
</svg>
