<svg width="1537" height="1392" viewBox="0 0 1537 1392" fill="none" xmlns="http://www.w3.org/2000/svg">
<path d="M1127.86 1200.34C1008.29 1318.78 843.653 1392 662 1392C568.134 1392 478.726 1372.44 397.719 1337.13L431.281 1260.13C501.901 1290.91 579.899 1308 662 1308C820.628 1308 964.262 1244.15 1068.75 1140.66L1127.86 1200.34Z" fill="#79C000"/>
<path d="M1481.54 250.215C1516.95 316.511 1537 392.226 1537 472.499C1537 726.668 1336.31 933.961 1084.75 944.57C1006.5 1098.46 846.616 1204 662 1204C400.217 1204 188 991.782 188 729.999C188 628.074 220.218 533.549 275.022 456.215L343.558 504.783C298.484 568.387 272 646.038 272 729.999C272 945.39 446.609 1120 662 1120C821.688 1120 959.051 1024.02 1019.37 886.428L1030.7 860.56C1041.96 860.739 1053.23 860.999 1064.5 860.999C1279.06 860.999 1453 687.062 1453 472.499C1453 406.363 1436.51 344.202 1407.45 289.783L1481.54 250.215Z" fill="#79C000"/>
<path d="M1181 1022C1208.61 1022 1231 1044.38 1231 1072C1231 1099.62 1208.61 1122 1181 1122C1153.39 1122 1131 1099.62 1131 1072C1131 1044.38 1153.39 1022 1181 1022Z" fill="#79C000"/>
<path d="M939.201 687.668C945.386 733.421 941.135 784.256 925.017 827.502C908.839 870.905 882.201 909.646 847.466 940.289C812.73 970.932 770.97 992.531 725.888 1003.17C683.355 1013.21 639.26 1012.96 597.148 1003.17L615.997 921.232C645.63 927.977 676.96 927.942 706.49 920.974C738.047 913.527 767.28 898.407 791.595 876.957C823.261 849.022 842.9 813.148 852.727 772.668H661.232V687.668H939.201Z" fill="#79C000"/>
<path d="M496.73 851.668C524.344 851.668 546.73 874.052 546.73 901.663C546.73 929.284 524.344 951.668 496.73 951.668C469.117 951.668 446.73 929.284 446.73 901.663C446.73 874.052 469.117 851.668 496.73 851.668Z" fill="#79C000"/>
<path d="M630.261 449.325C691.822 442.611 753.877 456.42 806.781 488.606L763 560.168C725.967 537.637 682.493 528.428 639.4 533.128C596.308 537.828 555.974 556.632 524.669 586.616C493.364 616.601 472.84 656.086 466.288 698.937C461.962 727.23 463.912 756.244 471.927 783.668L390.754 807.168C379.503 768.103 376.755 726.753 382.957 686.194C392.317 624.98 421.637 568.571 466.358 525.736C511.08 482.901 568.7 456.04 630.261 449.325Z" fill="#79C000"/>
<path d="M1064.5 84C927.867 84 807.641 154.536 738.359 261.297C769.017 266.317 798.944 274.178 827.08 284.304C882.657 215.367 968.612 169 1064.5 169C1232.12 169 1368 304.882 1368 472.5C1368 640.854 1231.37 772.5 1064.5 772.5V688.5C1186.47 688.5 1284 592.991 1284 472.5C1284 351.274 1185.72 253 1064.5 253C986.917 253 916.766 295.803 877.503 357.937L858.121 388.608C751.746 341.39 640.017 321.818 528.418 362.614L499.578 283.721C545.16 267.058 593.978 257.196 644.766 255.327C663.798 218.614 687.512 184.71 715.116 154.406C697.631 152.815 679.915 152 662 152C342.779 152 84 410.779 84 730H0C0 364.388 296.388 68 662 68C708.692 68 754.295 72.8406 798.321 82.0596C874.109 30.2894 965.755 0 1064.5 0V84Z" fill="#79C000"/>
<path d="M1102 434H1199V508H1102V605H1028V508H931V434H1028V338H1102V434Z" fill="#79C000"/>
<path d="M400 336C427.613 336 450 358.384 450 385.995C450 413.616 427.613 436 400 436C372.387 436 350 413.616 350 385.995C350 358.384 372.387 336 400 336Z" fill="#79C000"/>
</svg>
